<svg id="svg" version="1.1" width="400" height="266.6666666666667" viewBox="0 0 400 266.6666666666667" xmlns="http://www.w3.org/2000/svg" xmlns:xlink="http://www.w3.org/1999/xlink"><g id="svgg"><path id="path0" d="M117.708 84.694 C 116.348 84.798,114.355 85.122,113.281 85.414 C 111.270 85.960,111.621 85.942,115.910 85.281 C 118.578 84.871,124.253 85.071,126.923 85.670 C 128.773 86.085,128.673 85.826,126.778 85.295 C 124.690 84.709,120.847 84.454,117.708 84.694 M102.865 86.043 C 100.931 86.793,98.738 87.721,97.990 88.105 C 96.485 88.878,96.235 88.944,96.509 88.501 C 96.625 88.314,96.581 88.272,96.390 88.389 C 96.222 88.493,96.144 88.673,96.216 88.790 C 96.289 88.907,95.997 89.147,95.570 89.324 C 95.142 89.502,94.792 89.744,94.792 89.863 C 94.792 89.982,94.264 90.442,93.620 90.885 C 92.975 91.329,91.433 92.829,90.192 94.218 C 82.788 102.509,79.963 111.474,81.894 120.558 C 82.448 123.165,82.552 123.148,82.552 120.452 C 82.552 106.562,91.492 92.439,104.427 85.895 C 107.557 84.312,107.253 84.340,102.865 86.043 M105.987 87.609 C 101.471 89.452,95.925 94.024,92.655 98.598 C 90.457 101.674,90.468 101.722,93.093 100.509 C 96.175 99.085,96.384 98.933,99.349 95.957 C 101.902 93.395,104.240 91.649,106.966 90.267 C 109.557 88.954,108.660 86.517,105.987 87.609 M132.105 87.565 C 132.169 87.744,132.122 88.084,132.001 88.320 C 131.821 88.671,132.125 88.913,133.664 89.645 C 135.845 90.682,138.298 92.175,137.832 92.183 C 137.656 92.185,136.376 91.580,134.986 90.837 L 132.460 89.487 129.316 89.781 C 122.320 90.434,120.699 91.239,120.927 93.943 C 121.417 99.740,122.264 102.971,123.366 103.245 C 125.517 103.780,131.274 107.037,134.040 109.284 L 135.137 110.176 138.688 108.558 C 140.641 107.668,142.292 106.802,142.356 106.634 C 142.492 106.281,140.270 102.661,136.367 96.875 C 133.178 92.147,133.027 92.519,138.151 92.463 L 141.536 92.427 140.625 91.626 C 138.008 89.328,131.650 86.297,132.105 87.565 M105.729 91.333 C 103.274 92.695,97.809 97.869,97.492 99.130 C 97.159 100.460,99.478 109.421,100.329 110.092 C 100.839 110.493,101.918 110.686,106.508 111.197 L 110.807 111.676 113.802 108.758 C 115.449 107.154,117.764 105.098,118.945 104.190 C 120.127 103.282,121.093 102.349,121.092 102.116 C 121.091 101.883,120.915 100.291,120.701 98.578 C 120.487 96.864,120.313 94.670,120.313 93.702 L 120.313 91.942 118.555 91.418 C 112.733 89.681,108.754 89.654,105.729 91.333 M191.072 96.381 C 190.987 96.868,189.967 101.895,188.807 107.552 C 185.786 122.274,183.073 135.726,183.073 135.980 C 183.073 136.409,215.819 136.237,217.681 135.798 C 227.793 133.414,232.230 121.018,224.837 115.807 L 223.695 115.002 224.977 114.392 C 230.633 111.704,231.916 101.010,227.015 97.406 C 224.899 95.850,224.838 95.845,207.277 95.663 L 191.226 95.497 191.072 96.381 M248.115 96.278 C 248.439 96.340,248.908 96.338,249.157 96.273 C 249.406 96.207,249.141 96.157,248.568 96.159 C 247.995 96.162,247.791 96.216,248.115 96.278 M253.581 96.278 C 253.903 96.340,254.430 96.340,254.753 96.278 C 255.075 96.215,254.811 96.165,254.167 96.165 C 253.522 96.165,253.258 96.215,253.581 96.278 M263.615 96.285 C 264.299 96.339,265.354 96.339,265.958 96.284 C 266.563 96.229,266.003 96.185,264.714 96.186 C 263.424 96.187,262.930 96.232,263.615 96.285 M271.289 96.278 C 271.611 96.340,272.139 96.340,272.461 96.278 C 272.783 96.215,272.520 96.165,271.875 96.165 C 271.230 96.165,270.967 96.215,271.289 96.278 M119.506 105.323 C 118.446 106.245,116.875 107.658,116.016 108.463 L 114.453 109.926 116.523 108.321 C 118.396 106.868,118.685 106.728,119.565 106.847 C 122.573 107.250,129.933 112.105,132.195 115.178 C 132.821 116.028,133.333 116.532,133.333 116.296 C 133.333 115.098,126.859 109.823,122.929 107.819 C 121.777 107.231,119.151 106.253,118.948 106.337 C 118.682 106.446,120.996 104.359,121.352 104.168 C 121.617 104.026,122.399 104.251,123.638 104.824 C 124.673 105.304,125.521 105.638,125.521 105.566 C 125.521 105.446,121.789 103.646,121.541 103.646 C 121.482 103.646,120.566 104.400,119.506 105.323 M215.639 104.695 C 217.572 105.729,217.192 109.941,215.021 111.561 C 214.327 112.079,213.919 112.114,207.761 112.191 L 201.235 112.273 201.358 111.670 C 201.426 111.339,201.821 109.574,202.237 107.747 L 202.993 104.427 209.066 104.427 C 212.733 104.427,215.337 104.533,215.639 104.695 M126.953 106.433 C 127.096 106.581,127.799 107.029,128.516 107.430 C 129.232 107.831,129.701 108.038,129.557 107.890 C 129.414 107.742,128.711 107.293,127.995 106.893 C 127.279 106.492,126.810 106.285,126.953 106.433 M142.824 107.801 C 142.511 108.114,137.401 110.384,136.263 110.715 C 135.536 110.927,135.417 111.080,135.416 111.796 C 135.414 113.026,133.984 119.756,133.031 123.018 C 132.316 125.467,132.255 125.893,132.584 126.143 C 132.794 126.302,133.388 126.990,133.905 127.673 L 134.844 128.913 138.971 124.297 C 141.242 121.758,144.056 118.589,145.227 117.255 L 147.354 114.830 145.387 111.387 C 143.128 107.432,143.155 107.470,142.824 107.801 M131.709 109.500 C 133.612 110.931,133.779 111.127,133.922 112.109 C 134.028 112.835,134.039 112.823,134.076 111.939 C 134.112 111.060,131.291 108.333,130.346 108.333 C 130.242 108.333,130.855 108.858,131.709 109.500 M99.008 112.729 C 97.263 114.936,95.643 117.513,94.494 119.907 L 93.397 122.193 93.722 123.767 C 94.681 128.407,96.479 132.413,97.866 132.994 C 99.864 133.833,104.857 134.922,107.292 135.050 L 109.766 135.180 110.842 133.671 C 111.434 132.841,112.862 130.961,114.015 129.494 L 116.112 126.827 114.710 123.877 C 113.464 121.257,111.239 115.156,110.821 113.216 C 110.687 112.591,110.544 112.500,109.696 112.498 C 108.754 112.495,102.937 111.875,100.998 111.570 C 100.096 111.428,99.985 111.492,99.008 112.729 M87.240 118.948 C 87.240 119.247,87.948 120.052,88.210 120.052 C 88.294 120.052,88.140 119.788,87.869 119.466 C 87.597 119.144,87.345 118.831,87.307 118.772 C 87.270 118.712,87.240 118.792,87.240 118.948 M213.275 120.248 C 215.024 121.128,215.264 123.728,213.788 125.802 C 213.106 126.759,211.278 127.139,208.195 126.965 C 206.910 126.892,204.209 126.830,202.193 126.828 L 198.526 126.823 199.328 123.308 L 200.130 119.793 206.250 119.793 C 211.558 119.793,212.490 119.853,213.275 120.248 M95.781 121.052 C 95.811 121.412,96.018 121.907,96.241 122.154 C 96.531 122.475,96.558 122.632,96.335 122.706 C 96.113 122.780,96.137 122.923,96.421 123.207 C 96.640 123.426,96.862 123.830,96.915 124.105 C 96.968 124.380,97.332 124.759,97.725 124.947 C 98.129 125.141,98.438 125.502,98.438 125.780 C 98.438 126.050,98.547 126.339,98.682 126.422 C 98.816 126.505,98.883 126.797,98.831 127.070 C 98.756 127.455,98.858 127.543,99.283 127.462 C 99.704 127.381,99.760 127.427,99.525 127.662 C 99.152 128.036,99.118 128.479,99.479 128.255 C 99.622 128.167,99.740 128.277,99.740 128.500 C 99.740 128.724,99.857 128.906,100.000 128.906 C 100.143 128.906,100.260 128.736,100.260 128.527 C 100.260 128.267,100.460 128.348,100.900 128.788 C 101.462 129.351,102.019 129.561,102.671 129.457 C 102.779 129.440,103.244 129.785,103.703 130.224 C 104.210 130.709,104.720 130.974,105.003 130.900 C 105.259 130.833,105.469 130.874,105.469 130.991 C 105.469 131.108,105.765 131.172,106.126 131.132 C 106.488 131.092,106.843 131.156,106.916 131.274 C 106.988 131.391,107.220 131.422,107.430 131.341 C 107.646 131.258,107.813 131.342,107.813 131.535 C 107.813 131.767,107.897 131.790,108.079 131.608 C 108.382 131.306,109.958 131.459,109.764 131.773 C 109.695 131.885,109.820 132.046,110.041 132.131 C 110.263 132.216,110.377 132.178,110.296 132.046 C 110.214 131.915,110.285 131.722,110.453 131.618 C 110.643 131.501,110.688 131.543,110.572 131.731 C 110.470 131.896,110.504 132.031,110.648 132.031 C 110.999 132.031,110.246 133.847,109.632 134.479 C 108.846 135.289,101.601 134.186,98.106 132.724 C 96.952 132.242,96.103 130.594,94.832 126.369 C 93.793 122.918,93.751 122.689,94.014 121.996 C 94.581 120.505,95.687 119.915,95.781 121.052 M89.063 120.706 C 89.063 120.767,89.766 121.284,90.625 121.854 C 91.484 122.425,92.186 122.810,92.185 122.709 C 92.183 122.608,91.480 122.092,90.622 121.561 C 89.764 121.030,89.063 120.645,89.063 120.706 M92.215 123.327 C 92.165 123.838,93.704 129.016,94.260 130.208 C 94.560 130.853,94.733 131.146,94.644 130.859 C 94.556 130.573,94.148 129.284,93.739 127.995 C 93.329 126.706,92.825 125.065,92.618 124.349 C 92.411 123.633,92.230 123.173,92.215 123.327 M89.331 126.172 C 89.332 127.016,93.718 134.115,94.239 134.115 C 94.805 134.115,95.616 132.843,95.345 132.378 C 95.098 131.953,95.067 131.975,95.060 132.585 C 95.034 134.866,93.200 133.132,90.694 128.455 C 89.945 127.056,89.331 126.029,89.331 126.172 M123.051 126.815 L 117.326 126.953 116.410 128.233 C 115.907 128.937,114.407 130.967,113.078 132.745 L 110.661 135.976 111.491 137.454 C 113.214 140.521,116.558 144.792,117.237 144.792 C 117.347 144.792,116.923 144.318,116.295 143.739 C 113.972 141.598,110.925 136.435,111.469 135.561 C 112.746 133.513,114.583 131.886,114.583 132.804 C 114.583 133.153,114.708 133.269,114.974 133.167 C 115.219 133.073,115.365 133.170,115.365 133.428 C 115.365 133.703,115.507 133.783,115.798 133.672 C 116.073 133.566,116.168 133.608,116.057 133.787 C 115.895 134.050,117.266 134.435,118.620 134.506 C 118.906 134.521,119.418 134.685,119.758 134.871 C 120.204 135.114,120.322 135.121,120.182 134.896 C 120.036 134.660,120.116 134.651,120.507 134.861 C 120.792 135.013,121.099 135.064,121.190 134.973 C 121.280 134.883,121.354 134.935,121.354 135.090 C 121.354 135.384,121.698 135.368,122.461 135.038 C 122.712 134.929,123.122 134.930,123.372 135.040 C 123.903 135.272,123.840 135.271,124.948 135.064 C 125.432 134.974,125.744 135.006,125.663 135.137 C 125.583 135.266,125.724 135.336,125.975 135.294 C 126.227 135.252,126.410 135.106,126.382 134.971 C 126.306 134.598,127.160 134.738,127.832 135.208 L 128.428 135.626 125.737 138.441 C 123.443 140.842,123.293 141.047,124.716 139.834 C 126.561 138.262,133.854 130.283,133.854 129.838 C 133.854 129.684,133.325 128.883,132.678 128.060 L 131.503 126.563 130.139 126.620 C 129.390 126.652,126.200 126.739,123.051 126.815 M71.114 135.091 C 72.166 139.654,74.191 144.629,75.727 146.428 C 79.896 151.308,83.512 153.911,88.259 155.449 C 90.496 156.173,90.466 156.052,88.019 154.458 C 80.334 149.452,73.593 141.658,71.722 135.612 C 71.207 133.946,70.762 133.565,71.114 135.091 M193.238 145.099 C 192.469 148.296,191.787 151.117,191.723 151.367 C 191.620 151.767,191.816 151.823,193.307 151.823 L 195.008 151.823 195.462 149.897 L 195.916 147.971 199.716 147.874 C 204.876 147.741,205.340 147.436,206.385 143.490 C 207.411 139.616,207.200 139.476,200.156 139.370 L 194.636 139.287 193.238 145.099 M219.303 139.909 C 219.184 140.231,219.009 140.817,218.913 141.211 L 218.740 141.927 220.426 141.927 L 222.111 141.927 222.382 140.951 C 222.826 139.351,222.804 139.323,221.087 139.323 C 219.698 139.323,219.494 139.390,219.303 139.909 M127.669 141.858 C 128.350 141.912,129.463 141.912,130.143 141.858 C 130.824 141.804,130.267 141.761,128.906 141.761 C 127.546 141.761,126.989 141.804,127.669 141.858 M131.836 141.846 C 132.087 141.912,132.497 141.912,132.747 141.846 C 132.998 141.781,132.793 141.727,132.292 141.727 C 131.790 141.727,131.585 141.781,131.836 141.846 M202.485 141.931 C 203.120 142.173,203.166 142.281,203.004 143.168 C 202.636 145.182,202.410 145.313,199.310 145.313 L 196.549 145.313 196.716 144.480 C 196.807 144.023,197.002 143.202,197.149 142.657 L 197.416 141.667 199.602 141.667 C 200.805 141.667,202.102 141.786,202.485 141.931 M268.229 142.600 C 267.830 142.821,266.781 142.963,265.516 142.965 C 262.938 142.970,263.062 143.143,265.869 143.457 C 267.062 143.591,268.127 143.845,268.236 144.022 C 268.387 144.265,268.743 144.192,269.699 143.722 C 270.711 143.226,270.850 143.085,270.397 143.019 C 270.085 142.974,269.689 142.769,269.518 142.562 C 269.153 142.123,269.086 142.125,268.229 142.600 M248.047 142.679 C 244.630 142.941,243.897 143.707,242.839 148.132 C 242.122 151.128,242.515 151.596,246.052 151.950 C 249.579 152.302,252.308 151.911,253.309 150.910 C 254.579 149.640,254.505 149.609,250.195 149.609 L 246.224 149.609 246.142 148.893 L 246.059 148.177 250.347 148.177 L 254.636 148.177 254.910 146.940 C 255.548 144.056,255.548 144.066,254.849 143.367 C 254.323 142.841,253.932 142.708,252.909 142.708 C 252.204 142.708,251.291 142.666,250.879 142.613 C 250.467 142.561,249.193 142.591,248.047 142.679 M208.464 143.294 C 208.388 143.617,207.917 145.557,207.418 147.606 C 206.919 149.655,206.510 151.442,206.510 151.577 C 206.510 151.712,207.209 151.823,208.063 151.823 L 209.615 151.823 209.869 150.846 C 210.009 150.309,210.298 149.186,210.512 148.350 C 211.042 146.274,211.564 145.941,214.566 145.769 C 215.802 145.698,215.806 145.692,216.227 143.555 C 216.484 142.246,213.934 142.495,212.208 143.947 L 211.379 144.644 211.561 143.676 L 211.742 142.708 210.173 142.708 C 208.760 142.708,208.590 142.767,208.464 143.294 M224.350 143.034 C 224.287 143.213,223.817 145.059,223.305 147.135 C 222.792 149.212,222.311 151.117,222.237 151.367 C 222.117 151.768,222.302 151.823,223.783 151.823 L 225.465 151.823 225.906 149.935 C 226.820 146.028,227.017 145.614,228.121 145.283 C 230.545 144.557,230.823 145.161,229.823 148.972 C 229.467 150.325,229.174 151.520,229.172 151.628 C 229.169 151.735,229.904 151.823,230.806 151.823 L 232.445 151.823 233.177 148.821 C 233.985 145.507,234.360 145.052,236.283 145.052 C 237.829 145.052,237.935 145.486,237.150 148.574 C 236.770 150.071,236.458 151.413,236.458 151.559 C 236.458 151.709,237.162 151.823,238.094 151.823 L 239.730 151.823 240.567 148.191 C 241.468 144.281,241.435 143.542,240.335 142.953 C 239.452 142.480,236.168 142.771,235.156 143.413 L 234.326 143.938 233.711 143.323 C 232.820 142.432,230.287 142.449,228.495 143.358 C 226.939 144.148,227.039 144.148,227.237 143.359 C 227.422 142.622,224.603 142.304,224.350 143.034 M217.636 146.810 C 217.097 148.923,216.584 150.921,216.497 151.250 C 216.342 151.835,216.379 151.848,217.988 151.771 L 219.638 151.693 220.622 147.786 C 221.911 142.667,221.943 142.969,220.116 142.969 L 218.617 142.969 217.636 146.810 M251.411 144.689 C 251.655 144.783,251.823 145.154,251.823 145.601 L 251.823 146.354 249.219 146.354 C 247.786 146.354,246.615 146.288,246.615 146.207 C 246.615 144.944,249.608 143.997,251.411 144.689 M118.823 144.983 C 119.508 145.037,120.562 145.037,121.167 144.982 C 121.771 144.927,121.211 144.883,119.922 144.884 C 118.633 144.885,118.138 144.930,118.823 144.983 " stroke="none" fill="#e2e3e3" fill-rule="evenodd"></path><path id="path1" d="M92.578 90.984 C 87.444 93.767,84.806 95.672,81.188 99.206 C 79.487 100.867,78.043 102.195,77.980 102.155 C 77.916 102.116,77.918 102.157,77.984 102.247 C 78.108 102.415,75.933 105.656,75.386 106.120 C 75.217 106.263,75.065 106.470,75.049 106.580 C 75.033 106.691,74.375 108.068,73.588 109.641 C 72.800 111.215,72.017 112.966,71.847 113.534 C 71.676 114.102,71.439 114.505,71.318 114.431 C 71.198 114.357,71.166 114.468,71.247 114.679 C 71.327 114.889,71.160 115.921,70.875 116.971 C 69.683 121.367,69.793 133.276,71.034 134.086 C 71.168 134.173,71.484 134.889,71.736 135.677 C 73.013 139.663,75.514 143.409,79.561 147.396 L 82.072 149.870 80.539 147.526 C 77.117 142.292,75.826 139.668,74.608 135.467 C 73.707 132.358,73.806 131.809,74.883 133.948 C 83.089 150.248,112.260 159.069,137.370 152.845 C 140.037 152.184,150.290 148.901,150.144 148.755 C 150.084 148.695,148.708 148.831,147.087 149.059 C 117.759 153.180,94.573 145.370,84.557 127.995 C 81.008 121.837,80.296 113.074,82.795 106.297 C 84.895 100.603,89.944 93.415,93.620 90.885 C 94.609 90.205,95.016 89.824,94.727 89.850 C 94.691 89.853,93.724 90.363,92.578 90.984 M140.990 95.991 C 141.078 96.221,142.075 97.891,143.206 99.702 C 144.336 101.513,146.716 105.339,148.494 108.205 C 150.273 111.070,151.923 113.712,152.161 114.076 L 152.594 114.737 149.409 118.265 C 147.657 120.205,143.236 124.978,139.583 128.871 C 135.931 132.765,132.913 136.035,132.878 136.139 C 132.708 136.630,148.486 136.266,148.955 135.768 C 150.347 134.292,154.576 129.442,156.595 127.007 L 158.925 124.197 159.447 125.054 C 160.887 127.417,165.625 135.800,165.625 135.985 C 165.625 136.102,169.141 136.198,173.438 136.198 C 177.734 136.198,181.250 136.107,181.250 135.997 C 181.250 135.814,180.498 134.498,175.399 125.766 C 174.516 124.253,172.575 121.230,171.085 119.048 L 168.377 115.081 178.069 105.399 C 183.399 100.074,187.760 95.685,187.760 95.645 C 187.760 95.606,184.157 95.576,179.753 95.580 L 171.745 95.587 169.881 97.861 C 167.302 101.007,163.520 105.078,163.176 105.078 C 162.869 105.078,161.285 102.527,158.930 98.242 L 157.463 95.573 149.147 95.573 C 141.618 95.573,140.845 95.613,140.990 95.991 M188.281 146.754 C 188.066 146.797,184.990 147.039,181.445 147.290 C 177.900 147.542,175.000 147.827,175.000 147.923 C 175.000 148.190,179.558 148.435,184.570 148.436 L 189.063 148.438 189.063 147.526 C 189.063 147.025,188.975 146.628,188.867 146.645 C 188.760 146.661,188.496 146.710,188.281 146.754 M261.589 147.946 C 262.808 148.330,267.491 148.361,268.099 147.990 C 268.523 147.731,267.893 147.675,264.714 147.687 C 261.871 147.697,261.020 147.768,261.589 147.946 " stroke="none" fill="#da0406" fill-rule="evenodd"></path><path id="path2" d="M232.292 95.937 C 232.292 95.994,232.742 96.785,233.293 97.695 C 234.133 99.083,235.408 101.759,236.469 104.362 L 236.708 104.948 247.586 104.954 L 258.464 104.961 257.415 105.931 C 256.543 106.738,246.248 115.534,234.790 125.263 C 231.385 128.155,225.447 135.501,226.076 136.045 C 226.129 136.091,236.786 136.198,249.759 136.283 L 273.346 136.438 274.805 131.826 C 275.607 129.289,276.336 126.957,276.426 126.643 L 276.588 126.073 264.159 126.054 C 257.323 126.044,251.696 126.002,251.654 125.960 C 251.613 125.918,253.127 124.520,255.021 122.852 C 272.354 107.589,275.359 104.509,279.252 98.013 C 280.203 96.426,280.462 95.646,279.930 95.975 C 279.513 96.232,247.640 96.330,247.799 96.074 C 247.992 95.762,244.515 95.824,243.919 96.143 C 243.569 96.330,243.478 96.323,243.604 96.120 C 243.730 95.915,242.147 95.833,238.036 95.833 C 234.877 95.833,232.292 95.880,232.292 95.937 M258.854 116.698 C 251.423 123.665,248.015 126.168,244.271 127.410 C 243.010 127.829,252.341 128.853,260.286 129.168 C 264.154 129.322,268.744 129.513,270.486 129.592 L 273.655 129.737 273.276 131.080 C 273.067 131.818,272.716 132.920,272.495 133.529 L 272.092 134.635 250.673 134.635 C 238.892 134.635,229.185 134.567,229.101 134.483 C 228.390 133.772,233.713 128.223,239.387 123.757 C 241.142 122.376,244.316 119.805,246.439 118.045 L 250.300 114.844 255.554 114.855 L 260.807 114.866 258.854 116.698 M277.681 134.701 C 277.450 135.005,276.302 137.914,276.302 138.196 C 276.302 138.266,277.123 138.285,278.126 138.238 C 279.227 138.185,279.947 138.254,279.945 138.411 C 279.943 138.555,279.375 140.932,278.683 143.695 L 277.426 148.718 279.518 148.643 L 281.609 148.568 281.859 147.656 C 281.997 147.155,282.599 144.870,283.198 142.578 L 284.286 138.411 286.134 138.335 L 287.982 138.259 288.160 136.598 C 288.257 135.685,288.259 134.811,288.164 134.656 C 287.901 134.230,278.006 134.272,277.681 134.701 M289.460 134.625 C 289.286 134.906,289.618 137.803,290.401 142.825 C 290.692 144.695,291.009 146.751,291.106 147.396 L 291.281 148.568 293.644 148.642 L 296.007 148.716 300.487 141.933 C 302.951 138.202,305.034 134.976,305.115 134.762 C 305.240 134.437,304.885 134.375,302.896 134.375 L 300.528 134.375 299.911 135.352 C 299.571 135.889,298.251 138.290,296.977 140.688 C 295.704 143.086,294.594 145.049,294.513 145.050 C 294.431 145.051,294.219 143.265,294.041 141.081 C 293.864 138.896,293.651 136.494,293.568 135.742 L 293.418 134.375 291.516 134.375 C 290.470 134.375,289.545 134.487,289.460 134.625 M170.313 141.572 C 167.940 142.695,165.301 143.816,159.375 146.219 C 157.871 146.828,154.648 148.232,152.214 149.338 C 131.312 158.830,112.107 160.296,93.880 153.789 L 93.359 153.603 93.880 154.037 C 95.012 154.978,101.362 157.871,104.688 158.961 C 121.817 164.573,139.097 161.631,158.854 149.739 C 163.096 147.186,173.452 140.352,173.032 140.383 C 172.897 140.393,171.673 140.928,170.313 141.572 M136.666 159.128 C 135.770 159.651,130.594 160.615,129.167 160.526 C 128.051 160.456,127.878 160.490,128.385 160.681 C 128.911 160.880,128.797 160.909,127.799 160.834 C 127.119 160.783,126.563 160.844,126.563 160.969 C 126.563 161.095,125.273 161.198,123.698 161.198 C 121.391 161.198,120.833 161.126,120.833 160.826 C 120.833 160.622,120.628 160.401,120.378 160.336 C 120.127 160.270,120.747 160.203,121.755 160.186 C 124.178 160.147,132.370 159.442,133.854 159.145 C 135.553 158.806,137.236 158.796,136.666 159.128 " stroke="none" fill="#0dccf7" fill-rule="evenodd"></path><path id="path3" d="M116.884 82.410 C 116.836 82.452,116.094 82.557,115.234 82.643 C 114.375 82.730,112.591 83.080,111.270 83.421 C 109.948 83.762,108.806 83.979,108.731 83.904 C 108.655 83.829,108.594 83.904,108.594 84.071 C 108.594 84.238,108.401 84.375,108.166 84.375 C 106.483 84.375,99.243 88.752,95.852 91.820 C 84.698 101.910,79.369 119.259,84.670 128.222 C 94.876 145.476,117.895 153.161,147.087 149.059 C 148.708 148.831,150.084 148.695,150.144 148.755 C 150.290 148.901,140.037 152.184,137.370 152.845 C 112.245 159.073,83.325 150.331,74.859 133.948 C 72.957 130.268,74.743 136.940,76.802 141.209 C 79.753 147.326,82.911 151.045,87.972 154.364 C 90.410 155.962,90.492 156.114,88.660 155.629 C 84.546 154.539,79.623 151.232,76.599 147.526 C 75.524 146.208,75.874 147.144,77.408 149.689 C 77.952 150.593,78.328 151.445,78.242 151.584 C 78.156 151.722,78.191 151.804,78.320 151.764 C 78.448 151.725,79.153 152.412,79.886 153.290 C 80.619 154.169,81.980 155.569,82.911 156.401 C 83.842 157.234,84.534 158.027,84.449 158.164 C 84.364 158.301,84.427 158.332,84.588 158.233 C 84.974 157.994,86.242 158.832,86.025 159.183 C 85.932 159.335,85.981 159.379,86.137 159.283 C 86.291 159.187,87.258 159.566,88.286 160.124 C 89.376 160.715,90.008 161.196,89.804 161.279 C 89.611 161.356,89.746 161.415,90.104 161.408 C 90.462 161.402,92.026 161.887,93.579 162.485 C 111.889 169.538,134.283 167.222,153.763 156.260 C 154.758 155.700,155.684 155.311,155.821 155.395 C 155.958 155.480,155.990 155.420,155.892 155.262 C 155.648 154.866,157.084 154.643,158.854 154.803 C 159.642 154.874,164.154 154.927,168.880 154.921 C 173.607 154.916,177.650 154.913,177.865 154.916 C 178.426 154.923,200.809 154.907,201.432 154.899 C 201.719 154.895,202.859 154.927,203.966 154.969 C 205.072 155.012,206.045 154.979,206.127 154.897 C 206.209 154.815,206.668 154.837,207.148 154.945 C 207.628 155.053,208.164 155.052,208.340 154.944 C 208.517 154.835,209.085 154.791,209.604 154.846 C 210.122 154.901,215.996 154.939,222.656 154.931 C 229.316 154.923,237.578 154.935,241.016 154.958 C 244.453 154.981,247.441 154.994,247.656 154.988 C 251.840 154.855,259.537 155.018,259.811 155.246 C 260.063 155.455,260.156 155.453,260.156 155.240 C 260.156 155.044,260.979 154.948,262.646 154.948 C 264.568 154.948,265.090 155.022,264.939 155.273 C 264.783 155.534,264.824 155.534,265.145 155.274 C 265.514 154.975,273.381 154.877,290.365 154.959 C 293.228 154.973,297.595 154.918,298.685 154.855 C 299.169 154.827,299.522 154.471,300.145 153.385 C 303.224 148.015,304.640 145.579,307.565 140.625 C 309.383 137.546,311.066 134.641,311.306 134.171 C 311.561 133.670,311.861 133.390,312.030 133.495 C 312.208 133.605,312.247 133.556,312.131 133.368 C 312.027 133.199,312.299 132.481,312.736 131.771 C 313.587 130.387,313.564 129.685,312.667 129.691 C 312.211 129.695,312.181 129.742,312.500 129.949 C 312.796 130.142,312.701 130.192,312.109 130.159 C 311.680 130.134,311.159 129.989,310.953 129.836 C 310.667 129.624,310.626 129.638,310.779 129.893 C 310.940 130.161,310.367 130.222,307.963 130.191 C 306.302 130.170,304.879 130.048,304.800 129.920 C 304.721 129.792,304.517 129.689,304.347 129.691 C 304.160 129.694,304.192 129.796,304.427 129.948 C 304.723 130.139,304.608 130.201,303.956 130.204 C 303.482 130.207,303.149 130.120,303.215 130.013 C 303.281 129.906,303.036 129.800,302.669 129.778 C 302.189 129.749,302.105 129.802,302.369 129.969 C 302.597 130.113,301.771 130.202,300.180 130.204 C 298.542 130.207,297.683 130.115,297.786 129.948 C 297.875 129.805,297.772 129.688,297.557 129.688 C 297.342 129.688,297.094 129.805,297.005 129.948 C 296.917 130.091,296.470 130.194,296.013 130.178 L 295.182 130.147 295.964 129.948 C 296.684 129.765,296.694 129.747,296.094 129.722 C 295.736 129.708,295.270 129.805,295.059 129.938 C 294.806 130.098,294.608 130.075,294.477 129.869 C 294.326 129.631,294.278 129.634,294.275 129.883 C 294.273 130.062,294.007 130.200,293.685 130.190 C 293.126 130.173,293.123 130.161,293.620 129.948 C 294.117 129.734,294.114 129.723,293.555 129.706 C 293.232 129.696,292.969 129.805,292.969 129.948 C 292.969 130.091,292.390 130.208,291.682 130.208 C 290.974 130.208,290.323 130.091,290.234 129.948 C 290.146 129.805,289.934 129.689,289.763 129.691 C 289.577 129.694,289.609 129.796,289.844 129.948 C 290.110 130.120,289.379 130.202,287.550 130.204 C 285.825 130.207,284.923 130.115,285.026 129.948 C 285.115 129.805,285.073 129.688,284.933 129.688 C 284.793 129.688,284.625 129.834,284.559 130.013 C 284.464 130.273,284.371 130.273,284.095 130.013 C 283.905 129.834,283.627 129.689,283.477 129.691 C 283.326 129.694,283.379 129.809,283.594 129.948 C 283.867 130.125,283.458 130.202,282.229 130.204 L 280.473 130.208 281.095 128.581 C 282.218 125.645,283.307 123.306,283.529 123.355 C 283.649 123.381,283.742 123.088,283.736 122.704 L 283.724 122.005 281.389 121.929 C 279.924 121.881,278.979 121.736,278.854 121.539 C 278.707 121.307,278.653 121.304,278.650 121.529 C 278.645 121.895,271.895 122.091,270.378 121.769 C 270.047 121.699,269.792 121.771,269.792 121.933 C 269.792 122.092,269.725 122.155,269.643 122.073 C 269.399 121.830,271.665 118.490,271.952 118.668 C 272.099 118.758,272.136 118.702,272.037 118.541 C 271.737 118.056,283.603 100.114,283.992 100.465 C 284.105 100.567,284.114 100.505,284.011 100.327 C 283.817 99.989,286.177 96.310,286.471 96.492 C 286.559 96.547,286.632 96.446,286.632 96.268 C 286.632 95.764,288.019 93.521,288.567 93.136 C 289.308 92.618,288.902 92.448,286.920 92.448 C 285.554 92.448,285.172 92.370,285.321 92.122 C 285.469 91.876,285.416 91.879,285.101 92.133 C 284.762 92.408,284.661 92.408,284.551 92.133 C 284.448 91.876,284.411 91.873,284.396 92.122 C 284.384 92.301,284.251 92.448,284.099 92.448 C 283.948 92.448,283.884 92.350,283.958 92.231 C 284.031 92.112,283.921 92.014,283.713 92.014 C 283.504 92.014,283.333 92.112,283.333 92.231 C 283.333 92.350,280.755 92.448,277.604 92.448 C 273.958 92.448,271.875 92.353,271.875 92.188 C 271.875 92.044,271.751 91.927,271.599 91.927 C 271.448 91.927,271.406 92.074,271.507 92.253 C 271.654 92.513,271.621 92.513,271.340 92.253 C 271.147 92.074,270.867 91.929,270.716 91.931 C 270.566 91.933,270.618 92.049,270.833 92.188 C 271.120 92.373,270.935 92.441,270.139 92.444 C 269.511 92.446,268.998 92.311,268.922 92.122 C 268.817 91.862,268.787 91.862,268.771 92.122 C 268.759 92.301,268.457 92.448,268.099 92.448 C 267.741 92.448,267.446 92.301,267.444 92.122 C 267.441 91.886,267.378 91.894,267.213 92.154 C 266.984 92.516,265.797 92.477,264.714 92.072 C 264.298 91.917,264.271 91.934,264.583 92.159 C 265.130 92.552,257.457 92.555,256.722 92.162 C 256.373 91.974,256.245 91.969,256.355 92.147 C 256.471 92.335,251.967 92.422,241.803 92.427 C 233.707 92.431,227.083 92.343,227.083 92.231 C 227.083 92.025,226.608 92.043,224.479 92.331 C 223.613 92.448,223.409 92.417,223.698 92.212 C 223.913 92.060,223.962 91.933,223.806 91.931 C 223.651 91.929,223.436 92.015,223.329 92.122 C 222.992 92.460,214.584 92.432,214.579 92.094 C 214.577 91.926,214.472 91.960,214.339 92.171 C 214.143 92.481,214.032 92.486,213.692 92.204 C 213.382 91.947,213.193 91.936,212.925 92.159 C 212.608 92.422,200.087 92.400,194.882 92.128 C 194.143 92.089,193.598 92.153,193.670 92.269 C 193.854 92.567,191.881 92.182,191.406 91.828 C 191.070 91.577,191.064 91.598,191.360 91.976 C 191.671 92.373,191.602 92.414,190.644 92.401 C 190.060 92.393,189.583 92.312,189.584 92.222 C 189.584 92.032,187.685 92.050,187.339 92.242 C 187.116 92.367,185.622 92.309,183.930 92.110 C 183.471 92.056,183.155 92.110,183.229 92.230 C 183.303 92.350,183.174 92.448,182.943 92.448 C 182.675 92.448,182.593 92.329,182.717 92.122 C 182.852 91.898,182.777 91.907,182.475 92.151 C 182.182 92.389,181.800 92.440,181.318 92.305 C 180.923 92.195,180.130 92.127,179.557 92.154 C 178.984 92.181,178.340 92.201,178.125 92.198 C 175.713 92.168,174.672 92.164,173.568 92.179 C 172.852 92.189,170.956 92.162,169.356 92.119 C 167.755 92.076,166.502 92.132,166.572 92.244 C 166.641 92.356,166.427 92.446,166.096 92.444 C 165.612 92.441,165.571 92.391,165.885 92.188 C 166.207 91.979,166.182 91.934,165.742 91.931 C 165.449 91.929,165.070 92.065,164.901 92.234 C 164.665 92.470,164.449 92.464,163.970 92.208 C 163.530 91.972,163.202 91.951,162.854 92.137 C 162.563 92.293,161.916 92.319,161.266 92.200 C 160.662 92.089,160.232 92.100,160.309 92.224 C 160.385 92.347,160.258 92.448,160.026 92.448 C 159.794 92.448,159.673 92.337,159.757 92.201 C 159.844 92.060,159.655 92.012,159.317 92.088 C 157.910 92.404,155.729 92.417,155.725 92.109 C 155.723 91.913,155.650 91.894,155.530 92.057 C 155.333 92.326,153.363 92.435,153.527 92.169 C 153.578 92.086,153.216 92.028,152.722 92.038 C 152.228 92.049,151.824 92.145,151.824 92.253 C 151.822 92.559,150.833 92.481,150.634 92.160 C 150.508 91.955,150.397 91.966,150.254 92.198 C 150.129 92.400,149.870 92.448,149.571 92.324 C 148.968 92.075,147.670 92.000,147.808 92.223 C 147.864 92.314,147.293 92.369,146.539 92.347 C 145.080 92.303,142.788 90.894,143.148 90.262 C 143.239 90.104,143.225 90.053,143.118 90.149 C 143.011 90.245,141.967 89.702,140.798 88.942 C 135.527 85.517,130.715 83.582,125.508 82.792 C 123.740 82.523,117.092 82.229,116.884 82.410 M126.561 85.158 C 127.777 85.456,128.890 85.829,129.035 85.987 C 129.219 86.189,129.172 86.231,128.876 86.128 C 125.924 85.097,117.258 84.913,113.216 85.795 C 110.027 86.492,109.972 86.113,113.151 85.350 C 117.873 84.215,122.443 84.150,126.561 85.158 M108.333 88.660 L 108.333 89.802 110.091 89.949 C 112.929 90.186,117.106 90.884,118.702 91.388 L 120.182 91.856 120.249 93.259 C 120.286 94.030,120.491 96.151,120.705 97.971 C 121.274 102.817,121.437 102.294,118.685 104.459 C 117.360 105.501,115.040 107.556,113.530 109.026 L 110.784 111.697 106.238 111.208 C 101.040 110.649,100.440 110.477,99.877 109.389 C 99.175 108.031,97.629 102.292,97.488 100.521 L 97.354 98.828 99.191 96.809 C 100.987 94.833,102.883 93.046,104.173 92.111 C 104.795 91.660,104.788 91.660,103.964 92.106 C 102.746 92.766,99.433 95.740,98.261 97.226 C 97.236 98.526,91.143 101.944,90.939 101.333 C 90.447 99.855,97.573 92.499,102.430 89.472 C 106.778 86.762,108.333 86.548,108.333 88.660 M136.926 89.038 C 139.647 90.417,142.604 93.000,141.000 92.598 C 140.634 92.506,138.829 92.510,136.990 92.607 L 133.645 92.784 136.057 96.327 C 139.298 101.087,142.448 106.095,142.448 106.488 C 142.448 106.749,135.760 110.156,135.247 110.156 C 135.163 110.156,134.204 109.485,133.114 108.666 C 130.335 106.574,127.308 104.818,124.870 103.882 C 122.110 102.823,122.249 103.045,121.494 98.447 C 120.519 92.500,120.557 91.834,121.913 91.291 C 123.874 90.507,127.174 89.850,129.948 89.693 L 132.682 89.539 135.009 90.752 C 136.288 91.419,137.196 91.798,137.026 91.593 C 136.857 91.389,135.634 90.684,134.309 90.026 C 131.901 88.831,131.527 88.347,132.011 87.056 C 132.057 86.933,135.554 88.343,136.926 89.038 M105.924 90.903 C 105.387 91.187,104.948 91.477,104.948 91.548 C 104.948 91.619,105.417 91.438,105.990 91.146 C 106.563 90.854,107.031 90.558,107.031 90.489 C 107.031 90.319,107.029 90.320,105.924 90.903 M158.930 98.242 C 161.285 102.527,162.869 105.078,163.176 105.078 C 163.520 105.078,167.302 101.007,169.881 97.861 L 171.745 95.587 179.753 95.580 C 184.157 95.576,187.760 95.606,187.760 95.645 C 187.760 95.685,183.399 100.074,178.069 105.399 L 168.377 115.081 171.085 119.048 C 172.575 121.230,174.516 124.253,175.399 125.766 C 180.498 134.498,181.250 135.814,181.250 135.997 C 181.250 136.107,177.734 136.198,173.438 136.198 C 169.141 136.198,165.625 136.102,165.625 135.985 C 165.625 135.800,160.887 127.417,159.447 125.054 L 158.925 124.197 156.595 127.007 C 154.576 129.442,150.347 134.292,148.955 135.768 C 148.486 136.266,132.708 136.630,132.878 136.139 C 132.913 136.035,135.931 132.765,139.583 128.871 C 143.236 124.978,147.657 120.205,149.409 118.265 L 152.594 114.737 152.161 114.076 C 151.923 113.712,150.273 111.070,148.494 108.205 C 146.716 105.339,144.336 101.513,143.206 99.702 C 142.075 97.891,141.078 96.221,140.990 95.991 C 140.845 95.613,141.618 95.573,149.147 95.573 L 157.463 95.573 158.930 98.242 M223.169 95.850 C 226.218 96.345,228.116 97.755,229.353 100.445 C 231.532 105.186,229.053 112.869,224.823 114.485 L 223.711 114.910 224.690 115.619 C 232.169 121.037,228.263 132.793,217.967 135.856 C 215.591 136.563,183.073 136.708,183.073 136.012 C 183.073 135.523,184.883 126.459,188.807 107.292 C 189.965 101.634,190.980 96.683,191.062 96.289 L 191.211 95.573 206.348 95.575 C 215.663 95.576,222.132 95.682,223.169 95.850 M280.469 95.950 C 280.469 96.214,278.444 99.525,276.772 101.995 C 274.629 105.161,267.641 111.926,255.655 122.437 L 251.544 126.042 264.074 126.042 L 276.604 126.042 276.420 126.888 C 276.319 127.354,275.617 129.668,274.860 132.031 L 273.485 136.328 249.633 136.395 C 235.433 136.434,225.781 136.365,225.781 136.224 C 225.781 134.923,231.521 127.897,234.931 125.024 C 235.882 124.223,241.534 119.408,247.491 114.323 L 258.323 105.078 247.425 105.010 L 236.527 104.942 236.064 103.708 C 235.494 102.192,233.759 98.689,232.916 97.353 C 232.572 96.809,232.292 96.245,232.292 96.099 C 232.292 95.920,240.182 95.833,256.380 95.833 C 269.629 95.833,280.469 95.886,280.469 95.950 M95.303 100.379 C 95.093 100.587,93.838 101.288,92.513 101.937 C 91.188 102.585,90.102 103.206,90.098 103.316 C 90.095 103.426,89.851 103.809,89.555 104.167 C 88.868 104.998,89.203 104.302,90.024 103.192 C 90.372 102.722,91.217 102.104,91.933 101.796 C 92.640 101.492,93.718 100.968,94.330 100.633 C 95.641 99.914,95.817 99.868,95.303 100.379 M125.166 105.226 C 127.997 106.673,132.335 109.403,133.804 110.661 L 134.405 111.176 133.986 113.596 C 133.290 117.608,133.397 117.387,132.737 116.164 C 131.179 113.278,123.515 107.797,119.787 106.902 C 119.080 106.733,117.130 107.885,114.851 109.819 C 112.874 111.497,114.535 109.561,116.884 107.450 C 121.807 103.025,121.188 103.191,125.166 105.226 M202.775 105.794 C 202.562 106.546,202.192 108.099,201.953 109.245 C 201.714 110.391,201.458 111.542,201.386 111.804 C 201.193 112.500,213.450 112.373,214.740 111.667 C 217.075 110.388,217.661 105.870,215.628 104.819 C 215.019 104.504,213.720 104.427,209.016 104.427 L 203.162 104.427 202.775 105.794 M145.399 111.319 C 146.798 113.736,147.290 114.809,147.127 115.095 C 146.760 115.740,135.105 128.776,134.894 128.776 C 134.011 128.776,132.219 125.656,132.517 124.638 C 133.503 121.270,134.667 116.361,135.077 113.846 L 135.547 110.960 136.979 110.419 C 137.767 110.121,139.466 109.371,140.755 108.751 C 142.044 108.132,143.177 107.696,143.271 107.784 C 143.366 107.871,144.324 109.462,145.399 111.319 M106.250 112.118 C 111.015 112.604,110.938 112.584,110.938 113.321 C 110.938 114.370,113.032 120.130,114.629 123.469 L 116.200 126.755 115.327 127.922 C 114.846 128.564,113.349 130.515,112.000 132.256 L 109.547 135.423 108.224 135.281 C 107.496 135.203,106.315 135.078,105.599 135.004 C 103.849 134.823,99.181 133.671,97.801 133.079 C 96.493 132.519,95.380 130.228,93.976 125.214 L 93.198 122.433 94.494 119.745 C 95.731 117.178,97.978 113.732,99.444 112.152 C 100.042 111.508,100.265 111.432,101.172 111.560 C 101.745 111.640,104.030 111.892,106.250 112.118 M90.560 121.424 L 92.318 122.583 93.070 125.419 C 93.483 126.979,94.232 129.290,94.733 130.554 L 95.644 132.854 95.125 133.549 C 94.418 134.495,94.341 134.465,92.903 132.682 C 90.938 130.247,88.691 125.447,87.764 121.704 C 86.796 117.799,86.790 117.915,87.891 119.201 C 88.392 119.787,89.594 120.787,90.560 121.424 M200.140 120.117 C 199.948 120.718,198.698 126.309,198.698 126.567 C 198.698 126.936,211.665 126.905,212.731 126.534 C 215.230 125.663,215.303 120.754,212.828 120.066 C 211.356 119.658,200.273 119.702,200.140 120.117 M131.930 127.148 C 132.361 127.614,133.034 128.434,133.426 128.970 L 134.139 129.945 133.256 130.923 C 128.524 136.167,127.028 137.751,124.941 139.727 C 123.613 140.985,122.718 141.946,122.952 141.861 C 123.880 141.524,134.375 141.567,134.375 141.908 C 134.375 142.181,132.062 143.303,130.014 144.022 C 128.216 144.654,124.503 145.052,120.405 145.052 L 117.092 145.052 115.824 143.737 C 114.445 142.307,111.878 138.537,111.104 136.807 L 110.619 135.724 111.914 134.168 C 112.626 133.312,114.121 131.310,115.237 129.718 L 117.265 126.823 122.369 126.792 C 126.532 126.768,130.141 126.579,131.004 126.342 C 131.083 126.320,131.500 126.683,131.930 127.148 M288.228 136.263 L 288.151 138.151 286.299 138.227 L 284.447 138.303 283.221 143.011 C 281.485 149.674,281.894 149.038,279.490 148.818 C 278.381 148.717,277.454 148.619,277.429 148.599 C 277.362 148.547,279.616 139.274,279.826 138.737 C 279.985 138.329,279.810 138.281,278.153 138.281 C 277.135 138.281,276.302 138.179,276.302 138.054 C 276.302 137.833,276.735 136.561,277.311 135.091 L 277.591 134.375 282.948 134.375 L 288.304 134.375 288.228 136.263 M293.591 135.352 C 293.763 136.495,294.243 141.816,294.321 143.441 C 294.405 145.205,294.527 145.057,297.408 139.666 C 300.522 133.843,299.992 134.332,303.075 134.430 L 305.459 134.505 304.367 136.198 C 301.030 141.370,296.290 148.427,295.981 148.684 C 295.759 148.868,294.805 148.951,293.461 148.904 L 291.298 148.828 291.087 147.808 C 290.711 145.996,289.325 136.095,289.324 135.221 L 289.323 134.375 291.383 134.375 L 293.444 134.375 293.591 135.352 M206.223 139.949 C 206.964 140.620,206.932 141.909,206.112 144.505 C 205.140 147.584,204.835 147.751,199.886 147.917 L 195.995 148.047 195.768 148.958 C 195.643 149.460,195.427 150.309,195.287 150.846 L 195.032 151.823 193.349 151.823 C 192.424 151.823,191.664 151.735,191.662 151.628 C 191.659 151.520,192.318 148.701,193.126 145.364 L 194.596 139.295 200.136 139.374 C 205.153 139.446,205.727 139.500,206.223 139.949 M222.550 140.405 C 222.307 141.921,222.299 141.927,220.397 141.927 C 218.750 141.927,218.695 141.906,218.856 141.341 C 218.948 141.019,219.093 140.433,219.179 140.039 C 219.331 139.347,219.394 139.323,221.029 139.323 L 222.723 139.323 222.550 140.405 M173.438 140.241 C 173.438 140.463,161.244 148.480,157.898 150.458 C 149.221 155.587,140.664 159.035,132.066 160.866 C 128.145 161.702,117.065 161.919,113.281 161.235 C 106.289 159.972,100.484 157.937,94.798 154.758 C 92.558 153.506,93.056 153.440,96.427 154.544 C 113.682 160.197,132.240 158.260,153.776 148.558 C 156.211 147.461,159.316 146.114,160.677 145.563 C 165.869 143.463,168.952 142.143,170.964 141.162 C 173.077 140.130,173.438 139.996,173.438 140.241 M197.160 142.904 C 197.019 143.441,196.826 144.202,196.731 144.596 L 196.558 145.313 199.141 145.313 C 202.137 145.313,202.477 145.146,202.838 143.504 C 203.185 141.925,203.189 141.927,200.125 141.927 L 197.416 141.927 197.160 142.904 M269.423 142.377 C 269.735 142.689,270.417 142.857,271.655 142.927 C 273.958 143.057,273.942 143.384,271.623 143.549 C 270.526 143.628,269.533 143.860,269.111 144.136 C 268.497 144.539,268.388 144.546,268.193 144.197 C 268.024 143.894,267.254 143.763,264.910 143.639 C 258.989 143.324,258.601 143.134,263.499 142.947 C 267.162 142.807,268.094 142.695,268.438 142.351 C 268.954 141.835,268.879 141.833,269.423 142.377 M240.847 143.431 C 241.553 144.203,241.545 144.313,240.467 148.877 L 239.771 151.823 238.114 151.823 C 236.204 151.823,236.254 151.937,236.943 149.195 C 237.210 148.134,237.503 146.952,237.594 146.568 C 237.916 145.221,236.891 144.849,234.587 145.478 C 234.105 145.609,233.582 147.017,232.931 149.935 L 232.510 151.823 230.839 151.823 C 229.919 151.823,229.167 151.714,229.167 151.581 C 229.167 151.448,229.459 150.247,229.817 148.912 C 230.798 145.249,230.665 144.884,228.478 145.239 C 227.140 145.456,226.924 145.911,225.682 151.107 C 225.517 151.799,222.098 152.304,222.151 151.628 C 222.159 151.520,222.657 149.499,223.258 147.135 L 224.349 142.839 225.879 142.759 C 227.395 142.681,227.409 142.687,227.283 143.345 C 227.128 144.157,227.182 144.161,228.214 143.426 C 229.450 142.546,232.565 142.427,233.636 143.219 C 234.355 143.751,234.449 143.761,235.034 143.378 C 236.600 142.352,239.888 142.382,240.847 143.431 M254.660 143.178 C 255.405 143.744,255.497 145.095,254.935 147.183 L 254.667 148.177 250.381 148.177 L 246.094 148.177 246.094 148.823 C 246.094 149.725,246.800 149.845,250.809 149.627 C 252.656 149.527,254.167 149.517,254.167 149.605 C 254.167 151.337,252.516 151.953,247.870 151.953 C 242.368 151.953,241.914 151.529,242.972 147.383 C 244.129 142.851,244.886 142.391,250.884 142.570 C 253.477 142.648,254.092 142.747,254.660 143.178 M191.146 143.084 C 191.146 143.685,190.731 143.788,189.066 143.599 C 187.032 143.369,187.063 143.018,189.128 142.901 C 190.023 142.850,190.843 142.786,190.951 142.759 C 191.058 142.731,191.146 142.877,191.146 143.084 M211.580 143.528 L 211.400 144.348 212.145 143.828 C 214.265 142.351,216.510 142.272,216.251 143.685 C 215.894 145.642,215.740 145.833,214.525 145.835 C 211.635 145.839,210.940 146.449,210.219 149.618 L 209.747 151.693 208.033 151.769 L 206.318 151.845 207.342 147.602 C 207.906 145.269,208.414 143.213,208.472 143.034 C 208.541 142.820,209.126 142.708,210.169 142.708 L 211.760 142.708 211.580 143.528 M221.786 143.164 C 221.718 143.415,221.216 145.465,220.670 147.721 L 219.678 151.823 218.042 151.823 C 217.142 151.823,216.406 151.750,216.406 151.661 C 216.406 151.354,218.511 143.145,218.646 142.927 C 218.942 142.447,221.920 142.672,221.786 143.164 M248.115 144.718 C 247.466 144.816,246.615 145.636,246.615 146.161 C 246.615 146.830,251.693 146.222,251.772 145.544 C 251.874 144.658,250.523 144.352,248.115 144.718 M189.063 147.526 L 189.063 148.438 184.570 148.436 C 179.558 148.435,175.000 148.190,175.000 147.923 C 175.000 147.827,177.900 147.542,181.445 147.290 C 184.990 147.039,188.066 146.797,188.281 146.754 C 188.496 146.710,188.760 146.661,188.867 146.645 C 188.975 146.628,189.063 147.025,189.063 147.526 M268.099 147.990 C 267.491 148.361,262.808 148.330,261.589 147.946 C 261.020 147.768,261.871 147.697,264.714 147.687 C 267.893 147.675,268.523 147.731,268.099 147.990 " stroke="none" fill="#040404" fill-rule="evenodd"></path><path id="path4" d="M118.298 84.562 C 118.694 84.622,119.280 84.620,119.600 84.558 C 119.920 84.497,119.596 84.448,118.880 84.449 C 118.164 84.451,117.902 84.502,118.298 84.562 M120.902 84.562 C 121.298 84.622,121.884 84.620,122.204 84.558 C 122.524 84.497,122.201 84.448,121.484 84.449 C 120.768 84.451,120.506 84.502,120.902 84.562 M118.298 85.083 C 118.694 85.143,119.280 85.141,119.600 85.079 C 119.920 85.017,119.596 84.968,118.880 84.970 C 118.164 84.972,117.902 85.023,118.298 85.083 M110.807 85.955 C 110.383 86.123,110.444 86.165,111.133 86.180 C 112.013 86.199,112.212 86.081,111.654 85.871 C 111.475 85.804,111.094 85.842,110.807 85.955 M107.580 89.939 C 107.278 90.074,107.031 90.290,107.031 90.420 C 107.031 90.550,107.178 90.564,107.357 90.452 C 107.536 90.340,108.210 90.181,108.854 90.099 L 110.026 89.950 109.077 89.822 C 108.555 89.752,107.881 89.804,107.580 89.939 M136.821 91.712 C 136.714 91.885,136.754 91.936,136.917 91.835 C 137.070 91.741,137.240 91.799,137.295 91.965 C 137.351 92.130,137.538 92.218,137.711 92.161 C 137.911 92.094,137.839 91.939,137.515 91.736 C 137.137 91.501,136.955 91.494,136.821 91.712 M135.352 92.636 C 135.817 92.694,136.579 92.694,137.044 92.636 C 137.510 92.579,137.129 92.531,136.198 92.531 C 135.267 92.531,134.886 92.579,135.352 92.636 M100.367 94.851 C 100.094 95.171,100.046 95.299,100.260 95.135 C 100.475 94.970,100.739 94.826,100.846 94.814 C 101.068 94.789,101.140 94.543,100.975 94.378 C 100.914 94.317,100.641 94.530,100.367 94.851 M216.211 95.766 C 217.321 95.815,219.137 95.815,220.247 95.766 C 221.357 95.718,220.449 95.678,218.229 95.678 C 216.009 95.678,215.101 95.718,216.211 95.766 M256.445 96.029 C 260.778 96.069,267.868 96.069,272.201 96.029 C 276.533 95.988,272.988 95.956,264.323 95.956 C 255.658 95.956,252.113 95.988,256.445 96.029 M94.330 100.633 C 93.718 100.968,92.640 101.492,91.933 101.796 C 91.217 102.104,90.372 102.722,90.024 103.192 C 89.203 104.302,88.868 104.998,89.555 104.167 C 89.851 103.809,90.095 103.426,90.098 103.316 C 90.102 103.206,91.188 102.585,92.513 101.937 C 93.838 101.288,95.093 100.587,95.303 100.379 C 95.817 99.868,95.641 99.914,94.330 100.633 M121.734 103.924 C 121.639 104.077,121.392 104.137,121.184 104.057 C 120.976 103.977,120.870 104.015,120.947 104.140 C 121.132 104.439,120.406 105.036,120.093 104.843 C 119.960 104.761,119.706 104.868,119.529 105.081 C 119.352 105.294,119.298 105.469,119.410 105.469 C 119.521 105.469,119.392 105.712,119.123 106.009 C 118.854 106.306,118.748 106.526,118.888 106.499 C 119.467 106.384,120.073 106.527,119.937 106.747 C 119.857 106.876,120.044 106.917,120.353 106.836 C 120.771 106.726,120.861 106.776,120.704 107.030 C 120.563 107.258,120.594 107.309,120.795 107.185 C 121.191 106.940,122.187 107.258,121.995 107.568 C 121.914 107.699,122.049 107.730,122.295 107.635 C 122.596 107.519,122.681 107.562,122.555 107.765 C 122.430 107.969,122.515 108.011,122.816 107.895 C 123.117 107.780,123.202 107.822,123.076 108.026 C 122.950 108.229,123.035 108.271,123.336 108.156 C 123.618 108.048,123.720 108.086,123.613 108.260 C 123.516 108.416,123.638 108.520,123.896 108.499 C 124.147 108.479,124.317 108.618,124.277 108.808 C 124.238 108.998,124.326 109.079,124.472 108.989 C 124.810 108.780,125.845 109.485,125.584 109.746 C 125.478 109.852,125.508 109.916,125.651 109.887 C 126.180 109.780,126.589 109.903,126.450 110.127 C 126.372 110.254,126.512 110.342,126.761 110.322 C 127.010 110.303,127.184 110.433,127.148 110.612 C 127.113 110.791,127.171 110.924,127.279 110.907 C 127.708 110.839,128.023 110.973,128.646 111.487 C 129.004 111.782,129.132 111.937,128.931 111.831 C 128.688 111.703,128.628 111.740,128.754 111.943 C 128.857 112.111,129.052 112.180,129.187 112.097 C 129.550 111.873,132.596 114.874,132.434 115.296 C 132.359 115.492,132.400 115.589,132.526 115.511 C 132.917 115.269,133.384 116.092,133.212 116.719 C 133.065 117.256,133.079 117.268,133.348 116.836 C 133.513 116.571,133.581 116.015,133.497 115.599 C 133.414 115.184,133.458 114.844,133.594 114.844 C 133.732 114.844,133.769 114.483,133.677 114.022 C 133.558 113.426,133.597 113.252,133.820 113.390 C 134.284 113.677,133.884 111.441,133.364 110.845 C 133.132 110.579,132.943 110.287,132.943 110.196 C 132.943 110.104,132.812 110.060,132.652 110.096 C 132.492 110.133,132.199 109.963,132.001 109.719 C 131.693 109.340,131.694 109.307,132.006 109.495 C 132.257 109.646,132.313 109.620,132.184 109.411 C 132.080 109.243,131.908 109.160,131.802 109.226 C 131.572 109.367,130.149 108.479,130.325 108.304 C 130.391 108.238,130.204 108.033,129.909 107.849 C 129.554 107.627,129.436 107.616,129.559 107.815 C 129.662 107.983,129.387 107.931,128.935 107.697 C 128.489 107.467,128.125 107.216,128.125 107.139 C 128.125 107.063,128.260 107.084,128.426 107.186 C 128.608 107.299,128.656 107.258,128.548 107.083 C 128.449 106.924,128.206 106.856,128.007 106.933 C 127.807 107.009,127.411 106.838,127.125 106.552 C 126.840 106.267,126.538 106.101,126.454 106.185 C 126.370 106.268,126.302 106.204,126.302 106.042 C 126.302 105.880,126.054 105.614,125.750 105.452 C 125.356 105.241,125.249 105.239,125.376 105.445 C 125.502 105.648,125.360 105.645,124.895 105.433 C 124.532 105.267,124.296 105.033,124.371 104.913 C 124.445 104.792,124.305 104.771,124.059 104.865 C 123.758 104.981,123.673 104.938,123.799 104.735 C 123.925 104.531,123.840 104.489,123.539 104.605 C 123.253 104.714,123.154 104.675,123.265 104.496 C 123.377 104.314,123.240 104.267,122.876 104.362 C 122.494 104.462,122.373 104.414,122.499 104.211 C 122.622 104.011,122.535 103.969,122.236 104.084 C 121.933 104.200,121.850 104.157,121.978 103.951 C 122.081 103.783,122.108 103.646,122.036 103.646 C 121.964 103.646,121.828 103.771,121.734 103.924 M117.056 107.293 C 116.516 107.846,116.237 108.274,116.436 108.245 C 116.634 108.216,116.833 108.077,116.878 107.937 C 117.032 107.450,118.046 106.527,118.273 106.667 C 118.398 106.745,118.235 107.041,117.909 107.326 L 117.318 107.843 118.099 107.386 C 118.529 107.134,118.904 106.918,118.933 106.905 C 118.963 106.892,118.773 106.748,118.512 106.585 C 118.111 106.334,117.884 106.445,117.056 107.293 M271.861 107.487 L 270.964 108.464 271.940 107.566 C 272.477 107.073,272.917 106.633,272.917 106.590 C 272.917 106.391,272.696 106.578,271.861 107.487 M114.992 109.095 C 114.748 109.364,114.659 109.651,114.792 109.734 C 114.925 109.816,115.234 109.664,115.477 109.395 C 115.720 109.126,115.810 108.838,115.677 108.756 C 115.543 108.673,115.235 108.826,114.992 109.095 M267.566 111.523 L 266.536 112.630 267.643 111.601 C 268.252 111.035,268.750 110.537,268.750 110.494 C 268.750 110.297,268.523 110.494,267.566 111.523 M246.439 118.045 C 244.316 119.805,241.142 122.376,239.387 123.757 C 233.713 128.223,228.390 133.772,229.101 134.483 C 229.185 134.567,238.892 134.635,250.673 134.635 L 272.092 134.635 272.495 133.529 C 272.716 132.920,273.067 131.818,273.276 131.080 L 273.655 129.737 270.486 129.592 C 268.744 129.513,264.154 129.322,260.286 129.168 C 252.341 128.853,243.010 127.829,244.271 127.410 C 248.015 126.168,251.423 123.665,258.854 116.698 L 260.807 114.866 255.554 114.855 L 250.300 114.844 246.439 118.045 M258.708 119.596 L 257.943 120.443 258.789 119.678 C 259.255 119.257,259.635 118.876,259.635 118.831 C 259.635 118.630,259.421 118.807,258.708 119.596 M87.402 119.218 C 87.236 119.488,87.744 122.156,88.008 122.396 C 88.087 122.467,88.189 122.878,88.234 123.307 C 88.280 123.737,88.420 124.125,88.545 124.170 C 88.670 124.216,88.701 124.440,88.613 124.669 C 88.497 124.970,88.550 125.026,88.802 124.870 C 89.057 124.712,89.106 124.771,88.985 125.087 C 88.893 125.326,88.928 125.521,89.063 125.521 C 89.197 125.521,89.232 125.716,89.140 125.954 C 89.036 126.226,89.077 126.324,89.251 126.216 C 89.583 126.011,89.919 126.752,89.674 127.147 C 89.565 127.323,89.629 127.346,89.848 127.211 C 90.100 127.055,90.147 127.118,90.021 127.445 C 89.906 127.746,89.948 127.831,90.151 127.705 C 90.355 127.580,90.397 127.664,90.282 127.966 C 90.166 128.267,90.209 128.352,90.412 128.226 C 90.615 128.100,90.658 128.185,90.542 128.486 C 90.426 128.788,90.469 128.873,90.672 128.747 C 90.876 128.621,90.918 128.706,90.802 129.007 C 90.687 129.308,90.729 129.393,90.933 129.268 C 91.133 129.144,91.180 129.224,91.071 129.506 C 90.982 129.740,91.038 130.012,91.197 130.110 C 91.383 130.225,91.419 130.158,91.297 129.923 C 91.193 129.722,91.294 129.788,91.523 130.071 C 91.752 130.353,91.883 130.730,91.814 130.909 C 91.745 131.087,91.820 131.314,91.979 131.412 C 92.166 131.528,92.194 131.471,92.057 131.250 C 91.916 131.022,91.948 130.972,92.154 131.099 C 92.323 131.204,92.429 131.430,92.390 131.603 C 92.350 131.775,92.388 131.913,92.473 131.909 C 92.558 131.905,92.822 132.062,93.059 132.258 C 93.545 132.662,93.652 133.204,93.189 132.918 C 93.001 132.802,92.959 132.847,93.077 133.037 C 93.180 133.205,93.359 133.284,93.473 133.214 C 93.683 133.084,94.588 133.929,94.467 134.142 C 94.431 134.205,94.565 134.116,94.765 133.943 C 95.138 133.621,95.334 131.770,94.995 131.771 C 94.892 131.771,94.883 131.576,94.974 131.337 C 95.081 131.059,95.038 130.967,94.855 131.081 C 94.510 131.294,94.159 130.340,94.424 129.910 C 94.550 129.708,94.497 129.678,94.267 129.820 C 94.014 129.976,93.968 129.914,94.093 129.586 C 94.208 129.288,94.166 129.201,93.966 129.324 C 93.763 129.450,93.715 129.329,93.815 128.947 C 93.908 128.590,93.862 128.447,93.688 128.554 C 93.506 128.666,93.473 128.469,93.590 127.969 C 93.727 127.381,93.702 127.300,93.477 127.604 C 93.246 127.916,93.211 127.853,93.301 127.287 C 93.370 126.855,93.312 126.641,93.154 126.739 C 92.988 126.842,92.957 126.624,93.069 126.146 C 93.206 125.556,93.181 125.476,92.955 125.781 C 92.730 126.084,92.699 125.967,92.816 125.260 C 92.931 124.569,92.900 124.443,92.688 124.740 C 92.467 125.047,92.431 124.980,92.520 124.422 C 92.589 123.991,92.531 123.777,92.372 123.875 C 92.208 123.976,92.176 123.780,92.285 123.344 C 92.408 122.854,92.362 122.672,92.128 122.720 C 91.946 122.756,91.826 122.640,91.862 122.461 C 91.898 122.282,91.839 122.149,91.732 122.166 C 91.215 122.248,90.871 122.110,91.014 121.878 C 91.104 121.733,91.004 121.685,90.784 121.770 C 90.534 121.866,89.889 121.388,88.981 120.436 C 88.202 119.619,87.493 119.072,87.402 119.218 M94.669 120.896 C 93.622 122.118,93.630 122.375,94.832 126.369 C 96.103 130.594,96.952 132.242,98.106 132.724 C 101.601 134.186,108.846 135.289,109.632 134.479 C 110.246 133.847,110.999 132.031,110.648 132.031 C 110.504 132.031,110.470 131.896,110.572 131.731 C 110.688 131.543,110.643 131.501,110.453 131.618 C 110.285 131.722,110.214 131.915,110.296 132.046 C 110.377 132.178,110.263 132.216,110.041 132.131 C 109.820 132.046,109.695 131.885,109.764 131.773 C 109.958 131.459,108.382 131.306,108.079 131.608 C 107.897 131.790,107.813 131.767,107.813 131.535 C 107.813 131.342,107.646 131.258,107.430 131.341 C 107.220 131.422,106.988 131.391,106.916 131.274 C 106.843 131.156,106.488 131.092,106.126 131.132 C 105.765 131.172,105.469 131.108,105.469 130.991 C 105.469 130.874,105.259 130.833,105.003 130.900 C 104.720 130.974,104.210 130.709,103.703 130.224 C 103.244 129.785,102.779 129.440,102.671 129.457 C 102.019 129.561,101.462 129.351,100.900 128.788 C 100.460 128.348,100.260 128.267,100.260 128.527 C 100.260 128.736,100.143 128.906,100.000 128.906 C 99.857 128.906,99.740 128.724,99.740 128.500 C 99.740 128.277,99.622 128.167,99.479 128.255 C 99.118 128.479,99.152 128.036,99.525 127.662 C 99.760 127.427,99.704 127.381,99.283 127.462 C 98.858 127.543,98.756 127.455,98.831 127.070 C 98.883 126.797,98.816 126.505,98.682 126.422 C 98.547 126.339,98.438 126.050,98.438 125.780 C 98.438 125.502,98.129 125.141,97.725 124.947 C 97.332 124.759,96.968 124.380,96.915 124.105 C 96.862 123.830,96.640 123.426,96.421 123.207 C 96.137 122.923,96.113 122.780,96.335 122.706 C 96.558 122.632,96.531 122.475,96.241 122.154 C 96.018 121.907,95.811 121.412,95.781 121.052 C 95.717 120.275,95.256 120.210,94.669 120.896 M209.054 127.012 C 209.522 127.070,210.225 127.068,210.617 127.009 C 211.008 126.950,210.625 126.902,209.766 126.904 C 208.906 126.905,208.586 126.954,209.054 127.012 M112.658 134.049 C 111.551 135.362,111.218 135.939,111.343 136.328 C 111.434 136.615,111.523 137.045,111.539 137.286 C 111.556 137.526,111.682 137.653,111.819 137.568 C 111.962 137.480,111.995 137.604,111.896 137.861 C 111.781 138.163,111.823 138.248,112.026 138.122 C 112.227 137.998,112.273 138.079,112.163 138.366 C 112.061 138.631,112.119 138.772,112.314 138.734 C 112.488 138.700,112.615 138.872,112.596 139.117 C 112.577 139.362,112.694 139.538,112.856 139.508 C 113.018 139.478,113.135 139.657,113.115 139.906 C 113.096 140.155,113.184 140.295,113.311 140.216 C 113.438 140.138,113.556 140.198,113.574 140.349 C 113.592 140.501,113.621 140.732,113.639 140.864 C 113.657 140.995,113.779 141.200,113.909 141.319 C 114.049 141.448,114.059 141.387,113.934 141.171 C 113.787 140.917,113.819 140.865,114.040 141.002 C 114.215 141.110,114.297 141.359,114.222 141.554 C 114.147 141.750,114.215 141.991,114.375 142.089 C 114.561 142.204,114.595 142.138,114.471 141.902 C 114.365 141.701,114.514 141.828,114.803 142.184 C 115.092 142.540,115.276 142.883,115.212 142.948 C 114.953 143.207,116.744 144.746,117.131 144.597 C 117.353 144.512,117.468 144.551,117.388 144.682 C 117.302 144.823,118.789 144.941,120.991 144.967 C 123.053 144.992,124.740 144.921,124.740 144.810 C 124.740 144.698,125.531 144.611,126.497 144.617 C 127.544 144.624,128.834 144.433,129.688 144.147 C 131.280 143.612,134.391 142.190,133.984 142.184 C 133.841 142.181,133.859 142.093,134.024 141.988 C 134.189 141.883,131.712 141.797,128.518 141.798 L 122.713 141.798 123.177 141.146 C 123.433 140.788,123.918 140.261,124.256 139.976 C 124.849 139.474,124.848 139.483,124.219 140.236 L 123.568 141.016 124.283 140.385 C 124.676 140.039,124.943 139.700,124.876 139.633 C 124.810 139.567,125.575 138.633,126.578 137.559 L 128.401 135.607 127.819 135.199 C 127.158 134.736,126.307 134.601,126.382 134.971 C 126.410 135.106,126.227 135.252,125.975 135.294 C 125.724 135.336,125.583 135.266,125.663 135.137 C 125.744 135.006,125.432 134.974,124.948 135.064 C 123.840 135.271,123.903 135.272,123.372 135.040 C 123.122 134.930,122.712 134.929,122.461 135.038 C 121.698 135.368,121.354 135.384,121.354 135.090 C 121.354 134.935,121.280 134.883,121.190 134.973 C 121.099 135.064,120.792 135.013,120.507 134.861 C 120.116 134.651,120.036 134.660,120.182 134.896 C 120.322 135.121,120.204 135.114,119.758 134.871 C 119.418 134.685,118.906 134.521,118.620 134.506 C 117.266 134.435,115.895 134.050,116.057 133.787 C 116.168 133.608,116.073 133.566,115.798 133.672 C 115.507 133.783,115.365 133.703,115.365 133.428 C 115.365 133.170,115.219 133.073,114.974 133.167 C 114.708 133.269,114.583 133.153,114.583 132.804 C 114.583 131.963,114.216 132.201,112.658 134.049 M225.781 136.263 C 225.781 136.370,232.490 136.432,240.690 136.399 C 248.890 136.366,253.197 136.308,250.260 136.269 C 236.467 136.088,225.781 136.086,225.781 136.263 M190.690 136.393 C 194.951 136.433,201.924 136.433,206.185 136.393 C 210.446 136.353,206.960 136.320,198.438 136.320 C 189.915 136.320,186.429 136.353,190.690 136.393 M256.709 136.382 C 257.033 136.444,257.501 136.442,257.750 136.377 C 257.999 136.312,257.734 136.261,257.161 136.264 C 256.589 136.266,256.385 136.320,256.709 136.382 M198.503 141.858 C 199.183 141.912,200.296 141.912,200.977 141.858 C 201.657 141.804,201.100 141.761,199.740 141.761 C 198.379 141.761,197.822 141.804,198.503 141.858 M248.246 142.635 C 248.642 142.695,249.228 142.693,249.548 142.631 C 249.868 142.569,249.544 142.520,248.828 142.522 C 248.112 142.524,247.850 142.575,248.246 142.635 M189.128 142.901 C 188.232 142.952,187.500 143.090,187.500 143.208 C 187.500 143.472,190.532 143.838,190.889 143.618 C 191.187 143.433,191.241 142.684,190.951 142.759 C 190.843 142.786,190.023 142.850,189.128 142.901 M219.010 142.856 C 219.898 143.054,221.875 143.089,221.875 142.906 C 221.875 142.797,221.143 142.722,220.247 142.739 C 219.352 142.755,218.796 142.808,219.010 142.856 M266.471 142.888 C 266.722 142.953,267.132 142.953,267.383 142.888 C 267.633 142.822,267.428 142.769,266.927 142.769 C 266.426 142.769,266.221 142.822,266.471 142.888 M116.292 143.815 L 117.057 144.661 116.211 143.897 C 115.422 143.184,115.245 142.969,115.446 142.969 C 115.491 142.969,115.872 143.350,116.292 143.815 M259.766 143.229 C 260.195 143.339,261.543 143.428,262.760 143.428 C 264.287 143.428,264.732 143.366,264.193 143.229 C 263.763 143.120,262.415 143.030,261.198 143.030 C 259.671 143.030,259.227 143.092,259.766 143.229 M270.313 143.406 L 269.661 143.793 270.313 143.645 C 270.671 143.563,271.520 143.495,272.201 143.493 C 272.881 143.491,273.438 143.372,273.438 143.229 C 273.438 142.833,271.051 142.968,270.313 143.406 M265.694 143.676 C 266.090 143.736,266.675 143.735,266.996 143.673 C 267.316 143.611,266.992 143.562,266.276 143.564 C 265.560 143.566,265.298 143.617,265.694 143.676 M280.599 148.698 L 279.557 148.884 280.518 148.921 C 281.047 148.942,281.552 148.841,281.641 148.698 C 281.729 148.555,281.765 148.454,281.721 148.474 C 281.677 148.495,281.172 148.595,280.599 148.698 M291.377 148.774 C 291.491 148.888,292.570 148.945,293.774 148.902 L 295.964 148.824 293.566 148.696 C 292.248 148.625,291.263 148.661,291.377 148.774 M251.761 149.663 C 252.085 149.726,252.554 149.723,252.803 149.658 C 253.051 149.593,252.786 149.542,252.214 149.545 C 251.641 149.548,251.437 149.601,251.761 149.663 M110.482 157.471 C 110.732 157.537,111.143 157.537,111.393 157.471 C 111.644 157.406,111.439 157.352,110.938 157.352 C 110.436 157.352,110.231 157.406,110.482 157.471 M116.089 157.744 C 116.846 157.797,118.018 157.797,118.694 157.743 C 119.369 157.690,118.750 157.647,117.318 157.647 C 115.885 157.648,115.333 157.692,116.089 157.744 M133.854 159.145 C 132.370 159.442,124.178 160.147,121.755 160.186 C 120.747 160.203,120.127 160.270,120.378 160.336 C 120.628 160.401,120.833 160.622,120.833 160.826 C 120.833 161.126,121.391 161.198,123.698 161.198 C 125.273 161.198,126.563 161.095,126.563 160.969 C 126.563 160.844,127.119 160.783,127.799 160.834 C 128.797 160.909,128.911 160.880,128.385 160.681 C 127.878 160.490,128.051 160.456,129.167 160.526 C 130.594 160.615,135.770 159.651,136.666 159.128 C 137.236 158.796,135.553 158.806,133.854 159.145 M116.732 161.638 C 116.982 161.703,117.393 161.703,117.643 161.638 C 117.894 161.572,117.689 161.519,117.188 161.519 C 116.686 161.519,116.481 161.572,116.732 161.638 M125.846 161.638 C 126.097 161.703,126.507 161.703,126.758 161.638 C 127.008 161.572,126.803 161.519,126.302 161.519 C 125.801 161.519,125.596 161.572,125.846 161.638 " stroke="none" fill="#0574af" fill-rule="evenodd"></path></g></svg>